<mxfile host="app.diagrams.net" modified="2024-08-24T11:39:44.173Z" agent="Mozilla/5.0 (Windows NT 10.0; Win64; x64) AppleWebKit/537.36 (KHTML, like Gecko) Chrome/127.0.0.0 Safari/537.36" version="24.6.2" etag="q5JkTgxEE5CV-7KWQ-5J" type="github">
  <diagram name="Pagina-1" id="nFk-xYRCCgUmwnguuuYf">
    <mxGraphModel>
      <root>
        <mxCell id="0" />
        <mxCell id="1" parent="0" />
      </root>
    </mxGraphModel>
  </diagram>
</mxfile>
